{
  "accessors": [
    {
      "bufferView": 2,
      "componentType": 5126,
      "count": 3601,
      "max": [
        3.1426000595092773,
        2.0585429668426514,
        0.17366699874401093
      ],
      "min": [
        -3.1455700397491455,
        -5.2123680114746094,
        -1.2397589683532715
      ],
      "type": "VEC3"
    },
    {
      "bufferView": 2,
      "byteOffset": 43212,
      "componentType": 5126,
      "count": 3601,
      "max": [
        0.99999690055847168,
        0.99999988079071045,
        0.99999678134918213
      ],
      "min": [
        -0.99999690055847168,
        -0.99999988079071045,
        -0.99999642372131348
      ],
      "type": "VEC3"
    },
    {
      "bufferView": 3,
      "componentType": 5126,
      "count": 3601,
      "max": [
        1,
        0.99999988079071045,
        0.99999982118606567,
        1
      ],
      "min": [
        -1,
        -0.99999988079071045,
        -0.99999958276748657,
        -1
      ],
      "type": "VEC4"
    },
    {
      "bufferView": 1,
      "componentType": 5126,
      "count": 3601,
      "max": [
        0.99879997968673706,
        0.99790000915527344
      ],
      "min": [
        0,
        0
      ],
      "type": "VEC2"
    },
    {
      "bufferView": 0,
      "componentType": 5125,
      "count": 8316,
      "max": [
        3600
      ],
      "min": [
        0
      ],
      "type": "SCALAR"
    },
    {
      "bufferView": 2,
      "byteOffset": 86424,
      "componentType": 5126,
      "count": 4568,
      "max": [
        3.1426000595092773,
        2.0303750038146973,
        0.15257999300956726
      ],
      "min": [
        -3.1455700397491455,
        -5.2123317718505859,
        -1.2402650117874146
      ],
      "type": "VEC3"
    },
    {
      "bufferView": 2,
      "byteOffset": 141240,
      "componentType": 5126,
      "count": 4568,
      "max": [
        0.9998125433921814,
        0.99441909790039062,
        0.99555915594100952
      ],
      "min": [
        -0.9998125433921814,
        -0.97683215141296387,
        -0.98091870546340942
      ],
      "type": "VEC3"
    },
    {
      "bufferView": 3,
      "byteOffset": 57616,
      "componentType": 5126,
      "count": 4568,
      "max": [
        0.99999696016311646,
        0.93122291564941406,
        0.999336838722229,
        1
      ],
      "min": [
        -0.99999696016311646,
        -0.98114913702011108,
        -0.99937844276428223,
        -1
      ],
      "type": "VEC4"
    },
    {
      "bufferView": 1,
      "byteOffset": 28808,
      "componentType": 5126,
      "count": 4568,
      "max": [
        1,
        0.99919998645782471
      ],
      "min": [
        0,
        0
      ],
      "type": "VEC2"
    },
    {
      "bufferView": 0,
      "byteOffset": 33264,
      "componentType": 5125,
      "count": 12546,
      "max": [
        4567
      ],
      "min": [
        0
      ],
      "type": "SCALAR"
    }
  ],
  "asset": {
    "extras": {
      "author": "Léonard_Doye (https://sketchfab.com/leoskateman)",
      "license": "CC-BY-4.0 (http://creativecommons.org/licenses/by/4.0/)",
      "source": "https://sketchfab.com/3d-models/textured-x-wing-low-poly-32c242b812e549b2aa632373fd994e95",
      "title": "Textured X-wing (Low Poly)"
    },
    "generator": "Sketchfab-6.9.0",
    "version": "2.0"
  },
  "bufferViews": [
    {
      "buffer": 0,
      "byteLength": 83448,
      "byteOffset": 0,
      "name": "floatBufferViews",
      "target": 34963
    },
    {
      "buffer": 0,
      "byteLength": 65352,
      "byteOffset": 83448,
      "byteStride": 8,
      "name": "floatBufferViews",
      "target": 34962
    },
    {
      "buffer": 0,
      "byteLength": 196056,
      "byteOffset": 148800,
      "byteStride": 12,
      "name": "floatBufferViews",
      "target": 34962
    },
    {
      "buffer": 0,
      "byteLength": 130704,
      "byteOffset": 344856,
      "byteStride": 16,
      "name": "floatBufferViews",
      "target": 34962
    }
  ],
  "buffers": [
    {
      "byteLength": 475560,
      "uri": "scene.bin"
    }
  ],
  "images": [
    {
      "uri": "textures/Scene_-_Root_baseColor.png"
    },
    {
      "uri": "textures/Scene_-_Root_metallicRoughness.png"
    },
    {
      "uri": "textures/Scene_-_Root_normal.png"
    }
  ],
  "materials": [
    {
      "alphaMode": "BLEND",
      "doubleSided": true,
      "emissiveFactor": [
        0,
        0,
        0
      ],
      "name": "Scene_-_Root",
      "normalTexture": {
        "index": 2,
        "scale": 1,
        "texCoord": 0
      },
      "pbrMetallicRoughness": {
        "baseColorFactor": [
          1,
          1,
          1,
          1
        ],
        "baseColorTexture": {
          "index": 0,
          "texCoord": 0
        },
        "metallicFactor": 0,
        "metallicRoughnessTexture": {
          "index": 1,
          "texCoord": 0
        },
        "roughnessFactor": 1
      }
    }
  ],
  "meshes": [
    {
      "primitives": [
        {
          "attributes": {
            "NORMAL": 1,
            "POSITION": 0,
            "TANGENT": 2,
            "TEXCOORD_0": 3
          },
          "indices": 4,
          "material": 0,
          "mode": 4
        }
      ]
    },
    {
      "primitives": [
        {
          "attributes": {
            "NORMAL": 6,
            "POSITION": 5,
            "TANGENT": 7,
            "TEXCOORD_0": 8
          },
          "indices": 9,
          "material": 0,
          "mode": 4
        }
      ]
    }
  ],
  "nodes": [
    {
      "children": [
        1
      ],
      "name": "RootNode (gltf orientation matrix)",
      "rotation": [
        -0.70710678118654746,
        -0,
        -0,
        0.70710678118654757
      ]
    },
    {
      "children": [
        2
      ],
      "name": "RootNode (model correction matrix)"
    },
    {
      "children": [
        3,
        4
      ],
      "name": "b80e773d3c324451aec8c45857ef2db6.obj.cleaner.materialmerger.gles"
    },
    {
      "mesh": 0,
      "name": ""
    },
    {
      "mesh": 1,
      "name": ""
    }
  ],
  "samplers": [
    {
      "magFilter": 9729,
      "minFilter": 9987,
      "wrapS": 10497,
      "wrapT": 10497
    }
  ],
  "scene": 0,
  "scenes": [
    {
      "name": "OSG_Scene",
      "nodes": [
        0
      ]
    }
  ],
  "textures": [
    {
      "sampler": 0,
      "source": 0
    },
    {
      "sampler": 0,
      "source": 1
    },
    {
      "sampler": 0,
      "source": 2
    }
  ]
}

